<svg width="60" height="60" xmlns="http://www.w3.org/2000/svg">
 <g>
  <title>background</title>
  <rect x="-1" y="-1" width="62" height="62" id="canvas_background" fill="none"/>
 </g>

 <g>
  <title>Layer 1</title>
  <g id="svg_22">
   <g id="svg_1">
    <path d="m12,31.5c-1.654,0 -3,1.346 -3,3l0,12c0,1.654 1.346,3 3,3s3,-1.346 3,-3l0,-12c0,-1.654 -1.346,-3 -3,-3z" id="svg_2"/>
    <path d="m24,31.5c-1.654,0 -3,1.346 -3,3l0,5c0,1.654 1.346,3 3,3s3,-1.346 3,-3l0,-5c0,-1.654 -1.346,-3 -3,-3z" id="svg_3"/>
    <path d="m51.414,23.5l-16.461,-16.461c-0.236,-2.538 -2.354,-4.539 -4.953,-4.539s-4.717,2.001 -4.953,4.539l-16.461,16.461l-8.586,0l0,34l60,0l0,-34l-8.586,0zm-21.414,-19c1.654,0 3,1.346 3,3s-1.346,3 -3,3s-3,-1.346 -3,-3s1.346,-3 3,-3zm-4.58,4.994c0.773,1.766 2.532,3.006 4.58,3.006s3.807,-1.24 4.58,-3.006l14.006,14.006l-37.172,0l14.006,-14.006zm-8.42,37.006c0,2.757 -2.243,5 -5,5s-5,-2.243 -5,-5l0,-12c0,-2.757 2.243,-5 5,-5s5,2.243 5,5l0,12zm12,-7c0,2.757 -2.243,5 -5,5c-1.13,0 -2.162,-0.391 -3,-1.026l0,7.026c0,0.553 -0.448,1 -1,1s-1,-0.447 -1,-1l0,-11l0,-5c0,-2.757 2.243,-5 5,-5s5,2.243 5,5l0,5zm11,0c0.552,0 1,0.447 1,1s-0.448,1 -1,1l-7,0l0,8l7,0c0.552,0 1,0.447 1,1s-0.448,1 -1,1l-8,0c-0.552,0 -1,-0.447 -1,-1l0,-20c0,-0.553 0.448,-1 1,-1l8,0c0.552,0 1,0.447 1,1s-0.448,1 -1,1l-7,0l0,8l7,0zm13,11c0,0.003 -0.002,0.005 -0.002,0.009c-0.001,0.106 -0.029,0.208 -0.062,0.308c-0.008,0.024 -0.006,0.052 -0.016,0.075c-0.032,0.075 -0.087,0.137 -0.137,0.203c-0.028,0.037 -0.045,0.081 -0.077,0.114c-0.025,0.026 -0.063,0.039 -0.091,0.061c-0.073,0.059 -0.147,0.118 -0.235,0.154c-0.003,0.001 -0.005,0.004 -0.008,0.005c-0.122,0.049 -0.248,0.071 -0.372,0.071l0,0l0,0l-0.001,0c-0.12,0 -0.235,-0.029 -0.346,-0.07c-0.035,-0.013 -0.065,-0.03 -0.098,-0.046c-0.074,-0.037 -0.142,-0.083 -0.205,-0.138c-0.027,-0.024 -0.054,-0.045 -0.079,-0.071c-0.066,-0.071 -0.12,-0.152 -0.164,-0.243c-0.009,-0.018 -0.022,-0.032 -0.03,-0.051c-0.001,-0.003 -0.004,-0.006 -0.005,-0.009l-6.072,-15.179l0,14.807c0,0.553 -0.448,1 -1,1s-1,-0.447 -1,-1l0,-20c0,-0.003 0.002,-0.006 0.002,-0.009c0.001,-0.106 0.029,-0.207 0.062,-0.306c0.008,-0.025 0.007,-0.053 0.017,-0.077c0.031,-0.072 0.084,-0.13 0.13,-0.193c0.03,-0.04 0.048,-0.088 0.084,-0.123c0.025,-0.025 0.061,-0.037 0.088,-0.06c0.074,-0.06 0.149,-0.119 0.238,-0.156c0.003,-0.001 0.005,-0.004 0.008,-0.005c0.064,-0.026 0.13,-0.024 0.195,-0.036c0.059,-0.01 0.113,-0.035 0.176,-0.035c0.003,0 0.005,0.002 0.009,0.002c0.11,0.001 0.216,0.028 0.318,0.064c0.021,0.007 0.045,0.005 0.065,0.014c0.083,0.035 0.154,0.095 0.225,0.152c0.029,0.023 0.066,0.036 0.092,0.063c0.025,0.025 0.038,0.062 0.06,0.09c0.059,0.074 0.119,0.148 0.155,0.237c0.001,0.003 0.004,0.005 0.005,0.008l6.071,15.177l0,-14.807c0,-0.553 0.448,-1 1,-1s1,0.447 1,1l0,20z" id="svg_4"/>
   </g>
   <g id="svg_5"/>
   <g id="svg_6"/>
   <g id="svg_7"/>
   <g id="svg_8"/>
   <g id="svg_9"/>
   <g id="svg_10"/>
   <g id="svg_11"/>
   <g id="svg_12"/>
   <g id="svg_13"/>
   <g id="svg_14"/>
   <g id="svg_15"/>
   <g id="svg_16"/>
   <g id="svg_17"/>
   <g id="svg_18"/>
   <g id="svg_19"/>
   <rect fill="#000000" stroke="#000" stroke-width="1.5" x="5.042093" y="29.740022" width="51.092271" height="23.865469" id="svg_20"/>
   <text fill="#ffffff" stroke-width="0" x="1.176559" y="40.664356" id="svg_21" font-size="24" font-family="Helvetica, Arial, sans-serif" text-anchor="start" xml:space="preserve" transform="matrix(0.7750675678253175,0,0,0.7863825559616088,0.13568023219704625,15.480589773505924) " stroke="#000">Closed</text>
  </g>
 </g>
</svg>