<?xml version="1.0" encoding="UTF-8" standalone="no"?>
<!DOCTYPE svg PUBLIC "-//W3C//DTD SVG 1.1//EN" "http://www.w3.org/Graphics/SVG/1.1/DTD/svg11.dtd">
<svg version="1.1" xmlns="http://www.w3.org/2000/svg" xmlns:xlink="http://www.w3.org/1999/xlink" preserveAspectRatio="xMidYMid meet" viewBox="0 0 640 640" width="640" height="640"><defs><path d="M400 129.29C400 156.49 377.6 178.57 350 178.57C322.4 178.57 300 156.49 300 129.29C300 102.08 322.4 80 350 80C377.6 80 400 102.08 400 129.29Z" id="a1dyM2n6EN"></path><path d="M411.73 190.64C408.44 192.54 407.31 196.75 409.21 200.04C424.08 225.78 465.23 297.07 480.1 322.81C482 326.1 486.2 327.23 489.49 325.33C493.42 323.06 499.25 319.7 503.18 317.43C506.47 315.53 507.6 311.32 505.7 308.03C490.83 282.29 449.68 211 434.81 185.26C432.91 181.97 428.71 180.84 425.42 182.74C421.49 185.01 415.66 188.37 411.73 190.64Z" id="d41ovXplqG"></path><path d="M245.68 62.33C241.94 62.98 239.45 66.55 240.11 70.29C245.42 100.45 260.18 184.16 265.5 214.32C266.16 218.06 269.73 220.55 273.47 219.89C277.94 219.11 284.57 217.94 289.03 217.15C292.77 216.49 295.27 212.92 294.61 209.18C289.3 179.02 274.54 95.32 269.22 65.16C268.56 61.42 264.99 58.92 261.25 59.58C256.78 60.37 250.15 61.54 245.68 62.33Z" id="a1r0taEO0C"></path><path d="M399.31 381.97C394.17 381.97 390 386.14 390 391.28C390 421.42 390 502.53 390 532.67C390 537.81 394.17 541.97 399.31 541.97C405.44 541.97 414.56 541.97 420.69 541.97C425.83 541.97 430 537.81 430 532.67C430 502.53 430 421.42 430 391.28C430 386.14 425.83 381.97 420.69 381.97C414.56 381.97 405.44 381.97 399.31 381.97Z" id="b1HIUQ8gK3"></path><path d="M279.31 380C274.17 380 270 384.17 270 389.31C270 419.44 270 500.56 270 530.69C270 535.83 274.17 540 279.31 540C285.44 540 294.56 540 300.69 540C305.83 540 310 535.83 310 530.69C310 500.56 310 419.44 310 389.31C310 384.17 305.83 380 300.69 380C294.56 380 285.44 380 279.31 380Z" id="a9T3YAiv"></path><path d="M428.11 177.81C432.57 177.81 436.18 181.42 436.18 185.89C436.18 228.11 436.18 346.71 436.18 388.94C436.18 393.4 432.57 397.02 428.11 397.02C396.48 397.02 309.7 397.02 278.08 397.02C273.62 397.02 270 393.4 270 388.94C270 346.71 270 228.11 270 185.89C270 181.42 273.62 177.81 278.08 177.81C309.7 177.81 396.48 177.81 428.11 177.81Z" id="fHkLwt58H"></path></defs><g><g><g><use xlink:href="#a1dyM2n6EN" opacity="1" fill="#52863f" fill-opacity="1"></use></g><g><use xlink:href="#d41ovXplqG" opacity="1" fill="#0e3431" fill-opacity="1"></use></g><g><use xlink:href="#a1r0taEO0C" opacity="1" fill="#0e3431" fill-opacity="1"></use></g><g><use xlink:href="#b1HIUQ8gK3" opacity="1" fill="#0e3431" fill-opacity="1"></use></g><g><use xlink:href="#a9T3YAiv" opacity="1" fill="#0e3431" fill-opacity="1"></use></g><g><use xlink:href="#fHkLwt58H" opacity="1" fill="#3e6a42" fill-opacity="1"></use></g></g></g></svg>