<svg version="1.1" xmlns="http://www.w3.org/2000/svg" xmlns:xlink="http://www.w3.org/1999/xlink" preserveAspectRatio="xMidYMid meet" viewBox="0 0 640 640" id="el__y2rlSg_9"><style>@-webkit-keyframes kf_el_-e2OpvVjEC_an_NIKaIu6Qt{0%{-webkit-transform: translate(230.00132751464844px, 100.00132369995117px) translate(-230.00132751464844px, -100.00132369995117px) translate(0px, 0px);transform: translate(230.00132751464844px, 100.00132369995117px) translate(-230.00132751464844px, -100.00132369995117px) translate(0px, 0px);}30.30%{-webkit-transform: translate(230.00132751464844px, 100.00132369995117px) translate(-230.00132751464844px, -100.00132369995117px) translate(-8px, -12px);transform: translate(230.00132751464844px, 100.00132369995117px) translate(-230.00132751464844px, -100.00132369995117px) translate(-8px, -12px);}45.45%{-webkit-transform: translate(230.00132751464844px, 100.00132369995117px) translate(-230.00132751464844px, -100.00132369995117px) translate(-20px, -30px);transform: translate(230.00132751464844px, 100.00132369995117px) translate(-230.00132751464844px, -100.00132369995117px) translate(-20px, -30px);}60.61%{-webkit-transform: translate(230.00132751464844px, 100.00132369995117px) translate(-230.00132751464844px, -100.00132369995117px) translate(-32px, -39px);transform: translate(230.00132751464844px, 100.00132369995117px) translate(-230.00132751464844px, -100.00132369995117px) translate(-32px, -39px);}75.76%{-webkit-transform: translate(230.00132751464844px, 100.00132369995117px) translate(-230.00132751464844px, -100.00132369995117px) translate(-20px, -30px);transform: translate(230.00132751464844px, 100.00132369995117px) translate(-230.00132751464844px, -100.00132369995117px) translate(-20px, -30px);}87.88%{-webkit-transform: translate(230.00132751464844px, 100.00132369995117px) translate(-230.00132751464844px, -100.00132369995117px) translate(-8px, -12px);transform: translate(230.00132751464844px, 100.00132369995117px) translate(-230.00132751464844px, -100.00132369995117px) translate(-8px, -12px);}100%{-webkit-transform: translate(230.00132751464844px, 100.00132369995117px) translate(-230.00132751464844px, -100.00132369995117px) translate(0px, 0px);transform: translate(230.00132751464844px, 100.00132369995117px) translate(-230.00132751464844px, -100.00132369995117px) translate(0px, 0px);}}@keyframes kf_el_-e2OpvVjEC_an_NIKaIu6Qt{0%{-webkit-transform: translate(230.00132751464844px, 100.00132369995117px) translate(-230.00132751464844px, -100.00132369995117px) translate(0px, 0px);transform: translate(230.00132751464844px, 100.00132369995117px) translate(-230.00132751464844px, -100.00132369995117px) translate(0px, 0px);}30.30%{-webkit-transform: translate(230.00132751464844px, 100.00132369995117px) translate(-230.00132751464844px, -100.00132369995117px) translate(-8px, -12px);transform: translate(230.00132751464844px, 100.00132369995117px) translate(-230.00132751464844px, -100.00132369995117px) translate(-8px, -12px);}45.45%{-webkit-transform: translate(230.00132751464844px, 100.00132369995117px) translate(-230.00132751464844px, -100.00132369995117px) translate(-20px, -30px);transform: translate(230.00132751464844px, 100.00132369995117px) translate(-230.00132751464844px, -100.00132369995117px) translate(-20px, -30px);}60.61%{-webkit-transform: translate(230.00132751464844px, 100.00132369995117px) translate(-230.00132751464844px, -100.00132369995117px) translate(-32px, -39px);transform: translate(230.00132751464844px, 100.00132369995117px) translate(-230.00132751464844px, -100.00132369995117px) translate(-32px, -39px);}75.76%{-webkit-transform: translate(230.00132751464844px, 100.00132369995117px) translate(-230.00132751464844px, -100.00132369995117px) translate(-20px, -30px);transform: translate(230.00132751464844px, 100.00132369995117px) translate(-230.00132751464844px, -100.00132369995117px) translate(-20px, -30px);}87.88%{-webkit-transform: translate(230.00132751464844px, 100.00132369995117px) translate(-230.00132751464844px, -100.00132369995117px) translate(-8px, -12px);transform: translate(230.00132751464844px, 100.00132369995117px) translate(-230.00132751464844px, -100.00132369995117px) translate(-8px, -12px);}100%{-webkit-transform: translate(230.00132751464844px, 100.00132369995117px) translate(-230.00132751464844px, -100.00132369995117px) translate(0px, 0px);transform: translate(230.00132751464844px, 100.00132369995117px) translate(-230.00132751464844px, -100.00132369995117px) translate(0px, 0px);}}@-webkit-keyframes kf_el_-e2OpvVjEC_an_d5EU1OYua{0%{-webkit-transform: translate(230.00132751464844px, 100.00132369995117px) rotate(0deg) translate(-230.00132751464844px, -100.00132369995117px);transform: translate(230.00132751464844px, 100.00132369995117px) rotate(0deg) translate(-230.00132751464844px, -100.00132369995117px);}30.30%{-webkit-transform: translate(230.00132751464844px, 100.00132369995117px) rotate(-30deg) translate(-230.00132751464844px, -100.00132369995117px);transform: translate(230.00132751464844px, 100.00132369995117px) rotate(-30deg) translate(-230.00132751464844px, -100.00132369995117px);}60.61%{-webkit-transform: translate(230.00132751464844px, 100.00132369995117px) rotate(-80deg) translate(-230.00132751464844px, -100.00132369995117px);transform: translate(230.00132751464844px, 100.00132369995117px) rotate(-80deg) translate(-230.00132751464844px, -100.00132369995117px);}87.88%{-webkit-transform: translate(230.00132751464844px, 100.00132369995117px) rotate(-30deg) translate(-230.00132751464844px, -100.00132369995117px);transform: translate(230.00132751464844px, 100.00132369995117px) rotate(-30deg) translate(-230.00132751464844px, -100.00132369995117px);}100%{-webkit-transform: translate(230.00132751464844px, 100.00132369995117px) rotate(0deg) translate(-230.00132751464844px, -100.00132369995117px);transform: translate(230.00132751464844px, 100.00132369995117px) rotate(0deg) translate(-230.00132751464844px, -100.00132369995117px);}}@keyframes kf_el_-e2OpvVjEC_an_d5EU1OYua{0%{-webkit-transform: translate(230.00132751464844px, 100.00132369995117px) rotate(0deg) translate(-230.00132751464844px, -100.00132369995117px);transform: translate(230.00132751464844px, 100.00132369995117px) rotate(0deg) translate(-230.00132751464844px, -100.00132369995117px);}30.30%{-webkit-transform: translate(230.00132751464844px, 100.00132369995117px) rotate(-30deg) translate(-230.00132751464844px, -100.00132369995117px);transform: translate(230.00132751464844px, 100.00132369995117px) rotate(-30deg) translate(-230.00132751464844px, -100.00132369995117px);}60.61%{-webkit-transform: translate(230.00132751464844px, 100.00132369995117px) rotate(-80deg) translate(-230.00132751464844px, -100.00132369995117px);transform: translate(230.00132751464844px, 100.00132369995117px) rotate(-80deg) translate(-230.00132751464844px, -100.00132369995117px);}87.88%{-webkit-transform: translate(230.00132751464844px, 100.00132369995117px) rotate(-30deg) translate(-230.00132751464844px, -100.00132369995117px);transform: translate(230.00132751464844px, 100.00132369995117px) rotate(-30deg) translate(-230.00132751464844px, -100.00132369995117px);}100%{-webkit-transform: translate(230.00132751464844px, 100.00132369995117px) rotate(0deg) translate(-230.00132751464844px, -100.00132369995117px);transform: translate(230.00132751464844px, 100.00132369995117px) rotate(0deg) translate(-230.00132751464844px, -100.00132369995117px);}}@-webkit-keyframes kf_el_c5I2QG7w0Z_an_GRWJpZPsp{0%{-webkit-transform: translate(249.99807739257812px, 134.16807556152344px) rotate(0deg) translate(-249.99807739257812px, -134.16807556152344px);transform: translate(249.99807739257812px, 134.16807556152344px) rotate(0deg) translate(-249.99807739257812px, -134.16807556152344px);}30.30%{-webkit-transform: translate(249.99807739257812px, 134.16807556152344px) rotate(-10deg) translate(-249.99807739257812px, -134.16807556152344px);transform: translate(249.99807739257812px, 134.16807556152344px) rotate(-10deg) translate(-249.99807739257812px, -134.16807556152344px);}60.61%{-webkit-transform: translate(249.99807739257812px, 134.16807556152344px) rotate(-10deg) translate(-249.99807739257812px, -134.16807556152344px);transform: translate(249.99807739257812px, 134.16807556152344px) rotate(-10deg) translate(-249.99807739257812px, -134.16807556152344px);}87.88%{-webkit-transform: translate(249.99807739257812px, 134.16807556152344px) rotate(-10deg) translate(-249.99807739257812px, -134.16807556152344px);transform: translate(249.99807739257812px, 134.16807556152344px) rotate(-10deg) translate(-249.99807739257812px, -134.16807556152344px);}100%{-webkit-transform: translate(249.99807739257812px, 134.16807556152344px) rotate(0deg) translate(-249.99807739257812px, -134.16807556152344px);transform: translate(249.99807739257812px, 134.16807556152344px) rotate(0deg) translate(-249.99807739257812px, -134.16807556152344px);}}@keyframes kf_el_c5I2QG7w0Z_an_GRWJpZPsp{0%{-webkit-transform: translate(249.99807739257812px, 134.16807556152344px) rotate(0deg) translate(-249.99807739257812px, -134.16807556152344px);transform: translate(249.99807739257812px, 134.16807556152344px) rotate(0deg) translate(-249.99807739257812px, -134.16807556152344px);}30.30%{-webkit-transform: translate(249.99807739257812px, 134.16807556152344px) rotate(-10deg) translate(-249.99807739257812px, -134.16807556152344px);transform: translate(249.99807739257812px, 134.16807556152344px) rotate(-10deg) translate(-249.99807739257812px, -134.16807556152344px);}60.61%{-webkit-transform: translate(249.99807739257812px, 134.16807556152344px) rotate(-10deg) translate(-249.99807739257812px, -134.16807556152344px);transform: translate(249.99807739257812px, 134.16807556152344px) rotate(-10deg) translate(-249.99807739257812px, -134.16807556152344px);}87.88%{-webkit-transform: translate(249.99807739257812px, 134.16807556152344px) rotate(-10deg) translate(-249.99807739257812px, -134.16807556152344px);transform: translate(249.99807739257812px, 134.16807556152344px) rotate(-10deg) translate(-249.99807739257812px, -134.16807556152344px);}100%{-webkit-transform: translate(249.99807739257812px, 134.16807556152344px) rotate(0deg) translate(-249.99807739257812px, -134.16807556152344px);transform: translate(249.99807739257812px, 134.16807556152344px) rotate(0deg) translate(-249.99807739257812px, -134.16807556152344px);}}@-webkit-keyframes kf_el_fT_aJQqZmM8_an_oAnQoYPEe{0%{-webkit-transform: translate(271.0894470214844px, 56.15202713012695px) translate(-271.0894470214844px, -56.15202713012695px) translate(0px, 0px);transform: translate(271.0894470214844px, 56.15202713012695px) translate(-271.0894470214844px, -56.15202713012695px) translate(0px, 0px);}15.15%{-webkit-transform: translate(271.0894470214844px, 56.15202713012695px) translate(-271.0894470214844px, -56.15202713012695px) translate(5px, -4px);transform: translate(271.0894470214844px, 56.15202713012695px) translate(-271.0894470214844px, -56.15202713012695px) translate(5px, -4px);}30.30%{-webkit-transform: translate(271.0894470214844px, 56.15202713012695px) translate(-271.0894470214844px, -56.15202713012695px) translate(8px, -6px);transform: translate(271.0894470214844px, 56.15202713012695px) translate(-271.0894470214844px, -56.15202713012695px) translate(8px, -6px);}45.45%{-webkit-transform: translate(271.0894470214844px, 56.15202713012695px) translate(-271.0894470214844px, -56.15202713012695px) translate(5px, -4px);transform: translate(271.0894470214844px, 56.15202713012695px) translate(-271.0894470214844px, -56.15202713012695px) translate(5px, -4px);}60.61%{-webkit-transform: translate(271.0894470214844px, 56.15202713012695px) translate(-271.0894470214844px, -56.15202713012695px) translate(0px, 0px);transform: translate(271.0894470214844px, 56.15202713012695px) translate(-271.0894470214844px, -56.15202713012695px) translate(0px, 0px);}75.76%{-webkit-transform: translate(271.0894470214844px, 56.15202713012695px) translate(-271.0894470214844px, -56.15202713012695px) translate(5px, -4px);transform: translate(271.0894470214844px, 56.15202713012695px) translate(-271.0894470214844px, -56.15202713012695px) translate(5px, -4px);}100%{-webkit-transform: translate(271.0894470214844px, 56.15202713012695px) translate(-271.0894470214844px, -56.15202713012695px) translate(0px, 0px);transform: translate(271.0894470214844px, 56.15202713012695px) translate(-271.0894470214844px, -56.15202713012695px) translate(0px, 0px);}}@keyframes kf_el_fT_aJQqZmM8_an_oAnQoYPEe{0%{-webkit-transform: translate(271.0894470214844px, 56.15202713012695px) translate(-271.0894470214844px, -56.15202713012695px) translate(0px, 0px);transform: translate(271.0894470214844px, 56.15202713012695px) translate(-271.0894470214844px, -56.15202713012695px) translate(0px, 0px);}15.15%{-webkit-transform: translate(271.0894470214844px, 56.15202713012695px) translate(-271.0894470214844px, -56.15202713012695px) translate(5px, -4px);transform: translate(271.0894470214844px, 56.15202713012695px) translate(-271.0894470214844px, -56.15202713012695px) translate(5px, -4px);}30.30%{-webkit-transform: translate(271.0894470214844px, 56.15202713012695px) translate(-271.0894470214844px, -56.15202713012695px) translate(8px, -6px);transform: translate(271.0894470214844px, 56.15202713012695px) translate(-271.0894470214844px, -56.15202713012695px) translate(8px, -6px);}45.45%{-webkit-transform: translate(271.0894470214844px, 56.15202713012695px) translate(-271.0894470214844px, -56.15202713012695px) translate(5px, -4px);transform: translate(271.0894470214844px, 56.15202713012695px) translate(-271.0894470214844px, -56.15202713012695px) translate(5px, -4px);}60.61%{-webkit-transform: translate(271.0894470214844px, 56.15202713012695px) translate(-271.0894470214844px, -56.15202713012695px) translate(0px, 0px);transform: translate(271.0894470214844px, 56.15202713012695px) translate(-271.0894470214844px, -56.15202713012695px) translate(0px, 0px);}75.76%{-webkit-transform: translate(271.0894470214844px, 56.15202713012695px) translate(-271.0894470214844px, -56.15202713012695px) translate(5px, -4px);transform: translate(271.0894470214844px, 56.15202713012695px) translate(-271.0894470214844px, -56.15202713012695px) translate(5px, -4px);}100%{-webkit-transform: translate(271.0894470214844px, 56.15202713012695px) translate(-271.0894470214844px, -56.15202713012695px) translate(0px, 0px);transform: translate(271.0894470214844px, 56.15202713012695px) translate(-271.0894470214844px, -56.15202713012695px) translate(0px, 0px);}}@-webkit-keyframes kf_el_fT_aJQqZmM8_an_M5ULywa86{0%{-webkit-transform: translate(271.0894470214844px, 56.15202713012695px) rotate(0deg) translate(-271.0894470214844px, -56.15202713012695px);transform: translate(271.0894470214844px, 56.15202713012695px) rotate(0deg) translate(-271.0894470214844px, -56.15202713012695px);}15.15%{-webkit-transform: translate(271.0894470214844px, 56.15202713012695px) rotate(8deg) translate(-271.0894470214844px, -56.15202713012695px);transform: translate(271.0894470214844px, 56.15202713012695px) rotate(8deg) translate(-271.0894470214844px, -56.15202713012695px);}30.30%{-webkit-transform: translate(271.0894470214844px, 56.15202713012695px) rotate(12deg) translate(-271.0894470214844px, -56.15202713012695px);transform: translate(271.0894470214844px, 56.15202713012695px) rotate(12deg) translate(-271.0894470214844px, -56.15202713012695px);}45.45%{-webkit-transform: translate(271.0894470214844px, 56.15202713012695px) rotate(8deg) translate(-271.0894470214844px, -56.15202713012695px);transform: translate(271.0894470214844px, 56.15202713012695px) rotate(8deg) translate(-271.0894470214844px, -56.15202713012695px);}60.61%{-webkit-transform: translate(271.0894470214844px, 56.15202713012695px) rotate(0deg) translate(-271.0894470214844px, -56.15202713012695px);transform: translate(271.0894470214844px, 56.15202713012695px) rotate(0deg) translate(-271.0894470214844px, -56.15202713012695px);}75.76%{-webkit-transform: translate(271.0894470214844px, 56.15202713012695px) rotate(8deg) translate(-271.0894470214844px, -56.15202713012695px);transform: translate(271.0894470214844px, 56.15202713012695px) rotate(8deg) translate(-271.0894470214844px, -56.15202713012695px);}100%{-webkit-transform: translate(271.0894470214844px, 56.15202713012695px) rotate(0deg) translate(-271.0894470214844px, -56.15202713012695px);transform: translate(271.0894470214844px, 56.15202713012695px) rotate(0deg) translate(-271.0894470214844px, -56.15202713012695px);}}@keyframes kf_el_fT_aJQqZmM8_an_M5ULywa86{0%{-webkit-transform: translate(271.0894470214844px, 56.15202713012695px) rotate(0deg) translate(-271.0894470214844px, -56.15202713012695px);transform: translate(271.0894470214844px, 56.15202713012695px) rotate(0deg) translate(-271.0894470214844px, -56.15202713012695px);}15.15%{-webkit-transform: translate(271.0894470214844px, 56.15202713012695px) rotate(8deg) translate(-271.0894470214844px, -56.15202713012695px);transform: translate(271.0894470214844px, 56.15202713012695px) rotate(8deg) translate(-271.0894470214844px, -56.15202713012695px);}30.30%{-webkit-transform: translate(271.0894470214844px, 56.15202713012695px) rotate(12deg) translate(-271.0894470214844px, -56.15202713012695px);transform: translate(271.0894470214844px, 56.15202713012695px) rotate(12deg) translate(-271.0894470214844px, -56.15202713012695px);}45.45%{-webkit-transform: translate(271.0894470214844px, 56.15202713012695px) rotate(8deg) translate(-271.0894470214844px, -56.15202713012695px);transform: translate(271.0894470214844px, 56.15202713012695px) rotate(8deg) translate(-271.0894470214844px, -56.15202713012695px);}60.61%{-webkit-transform: translate(271.0894470214844px, 56.15202713012695px) rotate(0deg) translate(-271.0894470214844px, -56.15202713012695px);transform: translate(271.0894470214844px, 56.15202713012695px) rotate(0deg) translate(-271.0894470214844px, -56.15202713012695px);}75.76%{-webkit-transform: translate(271.0894470214844px, 56.15202713012695px) rotate(8deg) translate(-271.0894470214844px, -56.15202713012695px);transform: translate(271.0894470214844px, 56.15202713012695px) rotate(8deg) translate(-271.0894470214844px, -56.15202713012695px);}100%{-webkit-transform: translate(271.0894470214844px, 56.15202713012695px) rotate(0deg) translate(-271.0894470214844px, -56.15202713012695px);transform: translate(271.0894470214844px, 56.15202713012695px) rotate(0deg) translate(-271.0894470214844px, -56.15202713012695px);}}#el__y2rlSg_9 *{-webkit-animation-duration: 1.1s;animation-duration: 1.1s;-webkit-animation-iteration-count: 5;animation-iteration-count: 5;-webkit-animation-timing-function: cubic-bezier(0, 0, 1, 1);animation-timing-function: cubic-bezier(0, 0, 1, 1);}#el_y6EIfY7_KG{opacity: 1;fill: #983e3e;fill-opacity: 1;}#el_in0o-HemKe{opacity: 1;fill: #983e3e;fill-opacity: 1;}#el_6D8PAvca8v{opacity: 1;fill: #d2b87c;fill-opacity: 1;}#el_-UdXjPxrMN{opacity: 1;fill: #0d656e;fill-opacity: 1;}#el_ZtDp7yE7M4{opacity: 1;fill: #0d656e;fill-opacity: 1;}#el_Vq2HZ_bub3{opacity: 1;fill: #d2b87c;fill-opacity: 1;}#el_btJebxeGdau{opacity: 1;fill: #d2b87c;fill-opacity: 1;}#el_WM4SOX1dlNN{opacity: 1;fill: #983e3e;fill-opacity: 1;}#el_TZUtOcIaKGF{opacity: 1;fill-opacity: 0;stroke: #000000;stroke-width: 1;stroke-opacity: 1;}#el_MeRlB73BN21{opacity: 1;fill: #0d656e;fill-opacity: 1;}#el_9OsYriPzRhM{opacity: 1;fill: #0d656e;fill-opacity: 1;}#el_bwDQFbXpIyV{opacity: 1;fill: #d2b87c;fill-opacity: 1;}#el_LpaaxEk6BpR{opacity: 1;fill: #d2b87c;fill-opacity: 1;}#el_DWlHOA4NJMT{opacity: 1;fill: #482c26;fill-opacity: 1;}#el_FaaS3hGJ-H1{opacity: 1;fill: #df5022;fill-opacity: 1;}#el_HZPBxQh8gho{opacity: 1;fill: #d2b87c;fill-opacity: 1;}#el_g9gsLF7tmdW{opacity: 1;fill: #482c26;fill-opacity: 1;}#el_7dDVm8OmIlA{opacity: 1;fill: #983e3e;fill-opacity: 1;}#el_fT_aJQqZmM8_an_M5ULywa86{-webkit-animation-fill-mode: backwards;animation-fill-mode: backwards;-webkit-transform: translate(271.0894470214844px, 56.15202713012695px) rotate(0deg) translate(-271.0894470214844px, -56.15202713012695px);transform: translate(271.0894470214844px, 56.15202713012695px) rotate(0deg) translate(-271.0894470214844px, -56.15202713012695px);-webkit-animation-name: kf_el_fT_aJQqZmM8_an_M5ULywa86;animation-name: kf_el_fT_aJQqZmM8_an_M5ULywa86;-webkit-animation-timing-function: cubic-bezier(0, 0, 1, 1);animation-timing-function: cubic-bezier(0, 0, 1, 1);}#el_fT_aJQqZmM8_an_oAnQoYPEe{-webkit-animation-fill-mode: backwards;animation-fill-mode: backwards;-webkit-transform: translate(271.0894470214844px, 56.15202713012695px) translate(-271.0894470214844px, -56.15202713012695px) translate(0px, 0px);transform: translate(271.0894470214844px, 56.15202713012695px) translate(-271.0894470214844px, -56.15202713012695px) translate(0px, 0px);-webkit-animation-name: kf_el_fT_aJQqZmM8_an_oAnQoYPEe;animation-name: kf_el_fT_aJQqZmM8_an_oAnQoYPEe;-webkit-animation-timing-function: cubic-bezier(0, 0, 1, 1);animation-timing-function: cubic-bezier(0, 0, 1, 1);}#el_c5I2QG7w0Z_an_GRWJpZPsp{-webkit-animation-fill-mode: backwards;animation-fill-mode: backwards;-webkit-transform: translate(249.99807739257812px, 134.16807556152344px) rotate(0deg) translate(-249.99807739257812px, -134.16807556152344px);transform: translate(249.99807739257812px, 134.16807556152344px) rotate(0deg) translate(-249.99807739257812px, -134.16807556152344px);-webkit-animation-name: kf_el_c5I2QG7w0Z_an_GRWJpZPsp;animation-name: kf_el_c5I2QG7w0Z_an_GRWJpZPsp;-webkit-animation-timing-function: cubic-bezier(0, 0, 1, 1);animation-timing-function: cubic-bezier(0, 0, 1, 1);}#el_-e2OpvVjEC_an_d5EU1OYua{-webkit-animation-fill-mode: backwards;animation-fill-mode: backwards;-webkit-transform: translate(230.00132751464844px, 100.00132369995117px) rotate(0deg) translate(-230.00132751464844px, -100.00132369995117px);transform: translate(230.00132751464844px, 100.00132369995117px) rotate(0deg) translate(-230.00132751464844px, -100.00132369995117px);-webkit-animation-name: kf_el_-e2OpvVjEC_an_d5EU1OYua;animation-name: kf_el_-e2OpvVjEC_an_d5EU1OYua;-webkit-animation-timing-function: cubic-bezier(0, 0, 1, 1);animation-timing-function: cubic-bezier(0, 0, 1, 1);}#el_-e2OpvVjEC_an_NIKaIu6Qt{-webkit-animation-fill-mode: backwards;animation-fill-mode: backwards;-webkit-transform: translate(230.00132751464844px, 100.00132369995117px) translate(-230.00132751464844px, -100.00132369995117px) translate(0px, 0px);transform: translate(230.00132751464844px, 100.00132369995117px) translate(-230.00132751464844px, -100.00132369995117px) translate(0px, 0px);-webkit-animation-name: kf_el_-e2OpvVjEC_an_NIKaIu6Qt;animation-name: kf_el_-e2OpvVjEC_an_NIKaIu6Qt;-webkit-animation-timing-function: cubic-bezier(0, 0, 1, 1);animation-timing-function: cubic-bezier(0, 0, 1, 1);}#el_Vq2HZ_bub3_an_3T__jPny3{-webkit-transform: translate(348.1189880371094px, 140.19931030273438px) rotate(0deg) translate(-348.1189880371094px, -140.19931030273438px);transform: translate(348.1189880371094px, 140.19931030273438px) rotate(0deg) translate(-348.1189880371094px, -140.19931030273438px);}#el_bwDQFbXpIyV_an_17d2GrLAU{-webkit-transform: translate(352.2786865234375px, 214.82846069335938px) rotate(0deg) translate(-352.2786865234375px, -214.82846069335938px);transform: translate(352.2786865234375px, 214.82846069335938px) rotate(0deg) translate(-352.2786865234375px, -214.82846069335938px);}#el_bwDQFbXpIyV_an_VWT1hJxVy{-webkit-transform: translate(352.2786865234375px, 214.82846069335938px) translate(-352.2786865234375px, -214.82846069335938px) translate(0px, 0px);transform: translate(352.2786865234375px, 214.82846069335938px) translate(-352.2786865234375px, -214.82846069335938px) translate(0px, 0px);}#el_Vq2HZ_bub3_an_36sIgGy9z{-webkit-transform: translate(348.1189880371094px, 140.19931030273438px) translate(-348.1189880371094px, -140.19931030273438px) translate(0px, 0px);transform: translate(348.1189880371094px, 140.19931030273438px) translate(-348.1189880371094px, -140.19931030273438px) translate(0px, 0px);}</style><defs><path d="M339.67 247.12C345.37 247.12 350 251.74 350 257.45C350 289.96 350 377.16 350 409.67C350 415.37 345.37 420 339.67 420C333.73 420 326.27 420 320.33 420C314.63 420 310 415.37 310 409.67C310 377.16 310 289.96 310 257.45C310 251.74 314.63 247.12 320.33 247.12C326.27 247.12 333.73 247.12 339.67 247.12Z" id="b1E8LiEoFc"/><path d="M279.67 247.12C285.37 247.12 290 251.74 290 257.45C290 289.96 290 377.16 290 409.67C290 415.37 285.37 420 279.67 420C273.73 420 266.27 420 260.33 420C254.63 420 250 415.37 250 409.67C250 377.16 250 289.96 250 257.45C250 251.74 254.63 247.12 260.33 247.12C266.27 247.12 273.73 247.12 279.67 247.12Z" id="dZyaMivvX"/><path d="M245.07 130.52C242.37 134.39 237.03 135.33 233.16 132.62C221.39 124.38 193.06 104.56 181.29 96.31C177.42 93.6 176.48 88.27 179.19 84.4C180.84 82.03 180.91 81.94 182.56 79.57C185.27 75.7 190.61 74.76 194.48 77.47C206.25 85.71 234.57 105.54 246.35 113.78C250.22 116.49 251.16 121.82 248.45 125.69C246.8 128.06 246.73 128.15 245.07 130.52Z" id="f1ik5h2aak"/><path d="M345.87 118.53C349.22 118.53 351.94 121.25 351.94 124.6C351.94 151.12 351.94 224.63 351.94 251.16C351.94 254.51 349.22 257.22 345.87 257.22C326.31 257.22 273.69 257.22 254.13 257.22C250.78 257.22 248.06 254.51 248.06 251.16C248.06 224.63 248.06 151.12 248.06 124.6C248.06 121.25 250.78 118.53 254.13 118.53C273.69 118.53 326.31 118.53 345.87 118.53Z" id="b1kIRgHQxs"/><path d="M362.23 120.32C364.27 120.47 365.81 122.24 365.67 124.29C365.53 126.16 365.4 128.1 365.26 129.97C365.12 132.02 363.35 133.56 361.3 133.41C335.86 131.61 263.22 126.46 237.77 124.66C235.73 124.52 234.19 122.74 234.33 120.7C234.47 118.82 234.6 116.89 234.74 115.01C234.88 112.97 236.65 111.43 238.7 111.57C264.14 113.38 336.78 118.52 362.23 120.32Z" id="j2wPyy4OQh"/><path d="M371.26 229.96C366.61 230.81 362.16 227.72 361.31 223.08C358.4 207.05 351.18 167.37 348.26 151.34C347.41 146.69 350.49 142.24 355.14 141.39C357.98 140.88 358.1 140.86 360.94 140.34C365.59 139.49 370.04 142.58 370.89 147.22C373.8 163.25 381.02 202.93 383.94 218.96C384.79 223.61 381.7 228.06 377.06 228.9C374.21 229.42 374.1 229.44 371.26 229.96Z" id="egwiXlILN"/><path d="M226.49 39.63C230.07 41.96 231.08 46.75 228.74 50.33C221.87 60.86 205.49 85.96 198.62 96.49C196.28 100.07 191.49 101.08 187.91 98.74C185.41 97.11 184.36 96.43 181.85 94.79C178.28 92.46 177.27 87.66 179.6 84.09C186.48 73.56 202.86 48.45 209.73 37.92C212.07 34.35 216.86 33.34 220.43 35.67C222.94 37.31 223.99 37.99 226.49 39.63Z" id="b27oa7pSrc"/><path d="M347.3 251.72C350.98 251.73 353.95 254.72 353.94 258.4C353.93 259.73 353.94 257.07 353.94 258.4C353.93 262.07 350.94 265.04 347.26 265.03C327.02 264.97 272.94 264.79 252.7 264.73C249.02 264.71 246.05 261.72 246.06 258.05C246.07 256.72 246.06 259.38 246.06 258.05C246.07 254.37 249.06 251.4 252.74 251.42C272.98 251.48 327.06 251.66 347.3 251.72Z" id="b4kPA5O4d"/><path d="" id="a8bLCqE4G"/><path d="M263.23 115.86C268.25 118.15 270.46 124.09 268.16 129.11C266.24 133.31 264.64 136.81 262.72 141.01C260.42 146.04 254.49 148.24 249.46 145.95C244.32 143.6 238 140.7 232.86 138.35C227.84 136.05 225.63 130.12 227.93 125.1C229.85 120.9 231.45 117.39 233.37 113.19C235.67 108.17 241.61 105.96 246.63 108.26C251.77 110.61 258.09 113.5 263.23 115.86Z" id="a29UklcLEg"/><path d="M373.89 146.9C374.81 152.35 371.14 157.5 365.69 158.42C361.14 159.19 357.34 159.82 352.78 160.59C347.34 161.51 342.18 157.83 341.26 152.39C340.32 146.81 339.17 139.96 338.23 134.38C337.32 128.94 340.99 123.78 346.44 122.86C350.99 122.1 354.79 121.46 359.35 120.69C364.79 119.78 369.95 123.45 370.87 128.9C371.8 134.47 372.96 141.33 373.89 146.9Z" id="d7WA0vUNT"/><path d="M376.6 215.85C381.08 216.52 384.16 220.7 383.49 225.18C381.51 238.36 376.8 269.81 374.82 282.99C374.15 287.47 369.97 290.56 365.49 289.88C362.63 289.45 362.13 289.38 359.26 288.95C354.79 288.28 351.7 284.1 352.37 279.62C354.35 266.44 359.06 235 361.04 221.81C361.71 217.33 365.89 214.25 370.37 214.92C373.24 215.35 373.73 215.42 376.6 215.85Z" id="jyls5JrY"/><path d="M324.23 60.2C326.85 60.24 328.95 62.41 328.91 65.04C328.78 73.52 328.45 94.22 328.32 102.7C328.28 105.33 326.12 107.43 323.49 107.39C312.99 107.22 286.27 106.8 275.77 106.64C273.15 106.6 271.05 104.44 271.09 101.81C271.22 93.32 271.55 72.63 271.68 64.14C271.72 61.51 273.88 59.42 276.51 59.46C287.01 59.62 313.73 60.04 324.23 60.2Z" id="a4gq6dE06E"/><path d="M294.95 78.42C294.95 81.18 292.73 83.42 290 83.42C287.27 83.42 285.05 81.18 285.05 78.42C285.05 75.66 287.27 73.42 290 73.42C292.73 73.42 294.95 75.66 294.95 78.42Z" id="a105CYl73"/><path d="M326.13 59.3C328.4 59.44 330.13 61.4 329.99 63.68C329.93 64.5 330.04 62.85 329.99 63.68C329.84 65.95 327.88 67.68 325.61 67.53C314.83 66.85 286.6 65.07 275.82 64.39C273.55 64.25 271.82 62.29 271.96 60.02C272.01 59.19 271.91 60.84 271.96 60.02C272.11 57.74 274.06 56.02 276.34 56.16C287.12 56.84 315.35 58.62 326.13 59.3Z" id="c14Sv6p4kz"/><path d="M309.58 84.76C313.08 84.76 315.92 87.59 315.92 91.09C315.92 96.87 315.92 107.88 315.92 113.66C315.92 117.16 313.08 120 309.58 120C304.48 120 295.52 120 290.42 120C286.92 120 284.08 117.16 284.08 113.66C284.08 107.88 284.08 96.87 284.08 91.09C284.08 87.59 286.92 84.76 290.42 84.76C295.52 84.76 304.48 84.76 309.58 84.76Z" id="c1epWfDlFu"/><path d="M315.75 78.42C315.75 81.18 313.53 83.42 310.8 83.42C308.07 83.42 305.85 81.18 305.85 78.42C305.85 75.66 308.07 73.42 310.8 73.42C313.53 73.42 315.75 75.66 315.75 78.42Z" id="a3MQOPCrBj"/><path d="M311.46 92.07L311.69 92.23L311.87 92.45L312 92.71L312.49 94.02L312.56 94.3L312.57 94.59L312.51 94.86L312.39 95.11L312.23 95.34L312.01 95.52L311.75 95.65L300.35 99.92L300.07 99.99L299.78 99.99L299.51 99.94L299.26 99.82L299.03 99.65L299 99.61L298.97 99.63L298.75 99.81L298.5 99.93L298.23 99.99L297.95 99.99L297.66 99.93L286.18 95.89L285.92 95.76L285.7 95.58L285.52 95.37L285.4 95.11L285.34 94.84L285.34 94.56L285.4 94.27L285.87 92.96L285.99 92.69L286.17 92.47L286.39 92.3L286.64 92.18L286.92 92.12L287.2 92.11L287.49 92.18L298.97 96.21L298.99 96.23L310.37 91.97L310.65 91.9L310.94 91.89L311.21 91.95L311.46 92.07Z" id="b1gsqTa5uS"/></defs><g id="el_NJJ1Q4faGL"><g id="el_-33ny2g-39"><g id="el_4LdrdJoG7K"><use xlink:href="#b1E8LiEoFc" id="el_y6EIfY7_KG"/></g><g id="el_OeFWa0br9e"><use xlink:href="#dZyaMivvX" id="el_in0o-HemKe"/></g><g id="el_c5I2QG7w0Z_an_GRWJpZPsp" data-animator-group="true" data-animator-type="1"><g id="el_c5I2QG7w0Z"><use xlink:href="#f1ik5h2aak" id="el_6D8PAvca8v"/></g></g><g id="el_KZpfio67GW"><use xlink:href="#b1kIRgHQxs" id="el_-UdXjPxrMN"/></g><g id="el_llt1vNK5Sw"><use xlink:href="#j2wPyy4OQh" id="el_ZtDp7yE7M4"/></g><g id="el_Hm6lfc_bzt"><use xlink:href="#egwiXlILN" id="el_Vq2HZ_bub3"/></g><g id="el_-e2OpvVjEC_an_NIKaIu6Qt" data-animator-group="true" data-animator-type="0"><g id="el_-e2OpvVjEC_an_d5EU1OYua" data-animator-group="true" data-animator-type="1"><g id="el_-e2OpvVjEC"><use xlink:href="#b27oa7pSrc" id="el_btJebxeGdau"/></g></g></g><g id="el_uVGhWVjvgo4"><use xlink:href="#b4kPA5O4d" id="el_WM4SOX1dlNN"/></g><g id="el_wH-o9KIZ4b4"><g id="el_sYFDRxbMTZ-"><use xlink:href="#a8bLCqE4G" id="el_TZUtOcIaKGF"/></g></g><g id="el_-0_wWcN-dfy"><use xlink:href="#a29UklcLEg" id="el_MeRlB73BN21"/></g><g id="el_vEXRk9mbZZO"><use xlink:href="#d7WA0vUNT" id="el_9OsYriPzRhM"/></g><g id="el_fcCQ2DXRYOx"><use xlink:href="#jyls5JrY" id="el_bwDQFbXpIyV"/></g><g id="el_fT_aJQqZmM8_an_oAnQoYPEe" data-animator-group="true" data-animator-type="0"><g id="el_fT_aJQqZmM8_an_M5ULywa86" data-animator-group="true" data-animator-type="1"><g id="el_fT_aJQqZmM8"><g id="el_dtDFefeGdI8"><use xlink:href="#a4gq6dE06E" id="el_LpaaxEk6BpR"/></g><g id="el_vHvqh4KsI-P"><use xlink:href="#a105CYl73" id="el_DWlHOA4NJMT"/></g><g id="el_Z2PjzMnqmAv"><use xlink:href="#c14Sv6p4kz" id="el_FaaS3hGJ-H1"/></g><g id="el_NIHkeSgMpSm"><use xlink:href="#c1epWfDlFu" id="el_HZPBxQh8gho"/></g><g id="el_WDxcmc0533v"><use xlink:href="#a3MQOPCrBj" id="el_g9gsLF7tmdW"/></g><g id="el_1Um4KoQzQ57"><use xlink:href="#b1gsqTa5uS" id="el_7dDVm8OmIlA"/></g></g></g></g></g></g></svg>