<svg height="512pt" viewBox="0 0 512 512" width="512pt" xmlns="http://www.w3.org/2000/svg"><path d="m256 512c-68.382812 0-132.667969-26.628906-181.019531-74.980469-48.351563-48.351562-74.980469-112.640625-74.980469-181.019531s26.628906-132.667969 74.980469-181.019531c48.351562-48.351563 112.636719-74.980469 181.019531-74.980469 68.378906 0 132.667969 26.628906 181.019531 74.980469 48.351563 48.351562 74.980469 112.640625 74.980469 181.019531s-26.628906 132.667969-74.980469 181.019531c-48.351562 48.351563-112.640625 74.980469-181.019531 74.980469zm0-482c-124.617188 0-226 101.382812-226 226s101.382812 226 226 226 226-101.382812 226-226-101.382812-226-226-226zm0 0" fill="#09426d"/><path d="m256.078125 415.601562h-.078125c-21.113281 0-41.636719-4.0625-60.992188-12.074218-7.652343-3.167969-11.292968-11.941406-8.125-19.597656 3.167969-7.652344 11.941407-11.289063 19.597657-8.121094 15.703125 6.496094 32.363281 9.792968 49.519531 9.792968 8.285156 0 15.039062 6.714844 15.039062 15 0 8.28125-6.675781 15-14.960937 15zm55.328125-10.992187c-5.882812 0-11.464844-3.480469-13.859375-9.25-3.175781-7.652344.449219-16.429687 8.101563-19.605469 15.757812-6.542968 29.894531-16.007812 42.015624-28.136718 5.855469-5.859376 15.351563-5.863282 21.214844-.003907 5.855469 5.855469 5.859375 15.351563.003906 21.210938-14.917968 14.925781-32.320312 26.578125-51.730468 34.636719-1.882813.78125-3.832032 1.148437-5.746094 1.148437zm-157.570312-31.28125c-3.835938 0-7.671876-1.460937-10.601563-4.382813-14.929687-14.910156-26.59375-32.308593-34.660156-51.710937-3.179688-7.648437.441406-16.429687 8.089843-19.609375 7.652344-3.179688 16.429688.441406 19.609376 8.09375 6.550781 15.75 16.023437 29.882812 28.160156 41.996094 5.863281 5.855468 5.867187 15.351562.015625 21.214844-2.929688 2.933593-6.769531 4.398437-10.613281 4.398437zm235.792968-46.992187c-1.914062 0-3.859375-.371094-5.734375-1.148438-7.65625-3.171875-11.289062-11.949219-8.113281-19.601562 6.515625-15.722657 9.820312-32.40625 9.820312-49.585938l-.003906-.320312c0-8.285157 6.71875-15 15-15 8.285156 0 15 6.714843 15 15v.183593c.003906.046875.003906.089844.003906.136719 0 21.144531-4.074218 41.691406-12.109374 61.074219-2.394532 5.773437-7.976563 9.261719-13.863282 9.261719zm-278.230468-55.175782c-8.28125 0-15-6.714844-15-15v-.160156c0-21.085938 4.050781-41.578125 12.039062-60.910156 3.167969-7.65625 11.9375-11.296875 19.59375-8.136719 7.65625 3.164063 11.296875 11.9375 8.132812 19.59375-6.476562 15.679687-9.765624 32.320313-9.765624 49.453125v.160156c0 8.285156-6.714844 15-15 15zm278.121093-55.777344c-5.871093 0-11.445312-3.472656-13.847656-9.230468-6.570313-15.746094-16.058594-29.867188-28.207031-41.96875-5.867188-5.84375-5.886719-15.34375-.039063-21.210938 5.847657-5.871094 15.34375-5.886718 21.214844-.039062 14.945313 14.890625 26.628906 32.277344 34.71875 51.671875 3.1875 7.644531-.425781 16.425781-8.070313 19.617187-1.886718.785156-3.84375 1.160156-5.769531 1.160156zm-235.90625-46.492187c-3.832031 0-7.664062-1.457031-10.589843-4.378906-5.867188-5.851563-5.878907-15.347657-.03125-21.210938 14.902343-14.941406 32.292968-26.613281 51.691406-34.691406 7.648437-3.183594 16.429687.429687 19.613281 8.078125 3.1875 7.648438-.433594 16.429688-8.078125 19.613281-15.75 6.558594-29.875 16.042969-41.984375 28.183594-2.929687 2.9375-6.773437 4.40625-10.621094 4.40625zm157.492188-31.613281c-1.90625 0-3.84375-.367188-5.714844-1.136719-15.664063-6.464844-32.28125-9.742187-49.390625-9.742187h-.238281c-8.285157 0-15-6.714844-15-15 0-8.28125 6.714843-15 15-15h.238281c21.054688 0 41.519531 4.039062 60.828125 12.007812 7.660156 3.160156 11.308594 11.929688 8.148437 19.585938-2.386718 5.785156-7.980468 9.285156-13.871093 9.285156zm0 0" fill="#91e1ff"/></svg>